<?xml version="1.0" encoding="UTF-8" standalone="no"?>
<svg
   xmlns:dc="http://purl.org/dc/elements/1.1/"
   xmlns:cc="http://creativecommons.org/ns#"
   xmlns:rdf="http://www.w3.org/1999/02/22-rdf-syntax-ns#"
   xmlns:svg="http://www.w3.org/2000/svg"
   xmlns="http://www.w3.org/2000/svg"
   xmlns:sodipodi="http://sodipodi.sourceforge.net/DTD/sodipodi-0.dtd"
   xmlns:inkscape="http://www.inkscape.org/namespaces/inkscape"
   version="1.1"
   id="Capa_1"
   x="0px"
   y="0px"
   viewBox="0 0 1250 900"
   xml:space="preserve"
   sodipodi:docname="logo.svg"
   width="1250"
   height="900"
   inkscape:version="0.92.5 (2060ec1f9f, 2020-04-08)"><metadata
   id="metadata67"><rdf:RDF><cc:Work
       rdf:about=""><dc:format>image/svg+xml</dc:format><dc:type
         rdf:resource="http://purl.org/dc/dcmitype/StillImage" /><dc:title></dc:title></cc:Work></rdf:RDF></metadata><defs
   id="defs65" /><sodipodi:namedview
   pagecolor="#ffffff"
   bordercolor="#666666"
   borderopacity="1"
   objecttolerance="10"
   gridtolerance="10"
   guidetolerance="10"
   inkscape:pageopacity="0"
   inkscape:pageshadow="2"
   inkscape:window-width="2303"
   inkscape:window-height="981"
   id="namedview63"
   showgrid="false"
   inkscape:zoom="0.19311523"
   inkscape:cx="-543.51153"
   inkscape:cy="543.45752"
   inkscape:window-x="471"
   inkscape:window-y="202"
   inkscape:window-maximized="0"
   inkscape:current-layer="g874" />




<g
   id="g904"
   transform="translate(763.66102,43.05085)"><g
     id="g30">
	<g
   id="g874"
   transform="matrix(-1,0,0,1,109.2856,0)"><g
     id="g10">
	<path
   style="fill:#90caf9"
   d="m 414.27,414.272 c -6.528,6.528 -13.664,12.768 -21.056,18.4 -7.072,5.344 -8.448,15.36 -3.104,22.4 3.168,4.16 7.936,6.336 12.736,6.336 3.36,0 6.784,-1.056 9.664,-3.264 8.48,-6.4 16.672,-13.568 24.384,-21.28 6.24,-6.24 6.24,-16.384 0,-22.624 -6.24,-6.24 -16.352,-6.208 -22.624,0.032 z"
   id="path2"
   inkscape:connector-curvature="0" />
	<path
   style="fill:#90caf9"
   d="M 354.75,456.704 C 323.838,472.16 290.622,480 255.998,480 196.286,480 140.062,456.672 97.726,414.272 c -6.24,-6.24 -16.384,-6.24 -22.624,0 -6.24,6.24 -6.24,16.384 0,22.624 48.384,48.448 112.64,75.104 180.896,75.104 39.648,0 77.696,-8.96 113.056,-26.656 7.904,-3.968 11.104,-13.568 7.168,-21.472 -3.968,-7.904 -13.536,-11.168 -21.472,-7.168 z"
   id="path4"
   inkscape:connector-curvature="0" />
	<path
   style="fill:#90caf9"
   d="M 157.246,55.264 C 188.094,39.84 221.342,32 255.998,32 c 59.712,0 115.936,23.328 158.272,65.728 3.136,3.104 7.232,4.672 11.328,4.672 4.096,0 8.192,-1.568 11.328,-4.672 6.24,-6.24 6.24,-16.384 0,-22.624 C 388.542,26.656 324.286,0 255.998,0 216.318,0 178.27,8.96 142.91,26.656 c -7.904,3.936 -11.104,13.536 -7.136,21.44 3.968,7.904 13.536,11.104 21.472,7.168 z"
   id="path6"
   inkscape:connector-curvature="0" />
	<path
   style="fill:#90caf9"
   d="m 86.398,102.4 c 4.096,0 8.192,-1.568 11.328,-4.704 6.528,-6.528 13.664,-12.768 21.056,-18.4 7.04,-5.344 8.416,-15.36 3.072,-22.4 -5.344,-7.072 -15.392,-8.416 -22.4,-3.072 -8.608,6.528 -16.8,13.664 -24.384,21.28 -6.24,6.24 -6.24,16.384 0.032,22.624 3.136,3.104 7.2,4.672 11.296,4.672 z"
   id="path8"
   inkscape:connector-curvature="0" />
</g><g
     id="g20">
	<path
   style="fill:#bbdefb"
   d="m 391.71,369.088 c -6.208,-6.24 -16.416,-6.112 -22.624,0.128 -3.168,3.2 -6.656,6.4 -10.432,9.568 -6.752,5.728 -7.616,15.808 -1.952,22.56 3.2,3.744 7.68,5.696 12.256,5.696 3.648,0 7.328,-1.248 10.304,-3.744 4.544,-3.84 8.704,-7.68 12.576,-11.552 6.208,-6.272 6.144,-16.416 -0.128,-22.656 z"
   id="path12"
   inkscape:connector-curvature="0" />
	<path
   style="fill:#bbdefb"
   d="m 177.662,431.2 c 24.448,11.136 50.816,16.8 78.336,16.8 27.36,0 53.824,-5.664 78.56,-16.768 8.064,-3.616 11.648,-13.088 8.032,-21.152 -3.616,-8.096 -13.152,-11.712 -21.152,-8.032 -41.312,18.592 -90.112,18.464 -130.496,0.032 -8.064,-3.616 -17.536,-0.096 -21.184,7.904 -3.68,8.032 -0.128,17.504 7.904,21.216 z"
   id="path14"
   inkscape:connector-curvature="0" />
	<path
   style="fill:#bbdefb"
   d="m 183.998,111.36 c 2.176,0 4.416,-0.448 6.56,-1.408 41.216,-18.592 89.984,-18.496 130.496,-0.032 8.096,3.68 17.536,0.096 21.184,-7.936 C 345.886,93.952 342.366,84.48 334.302,80.8 285.47,58.56 227.07,58.464 177.438,80.768 c -8.064,3.616 -11.648,13.088 -8.032,21.152 2.656,5.92 8.512,9.44 14.592,9.44 z"
   id="path16"
   inkscape:connector-curvature="0" />
	<path
   style="fill:#bbdefb"
   d="m 120.158,142.784 c 3.136,3.168 7.232,4.736 11.36,4.736 4.064,0 8.16,-1.536 11.296,-4.672 3.264,-3.232 6.752,-6.464 10.592,-9.696 6.72,-5.728 7.584,-15.808 1.888,-22.56 -5.728,-6.72 -15.808,-7.552 -22.592,-1.856 -4.512,3.84 -8.672,7.648 -12.48,11.424 -6.24,6.24 -6.272,16.384 -0.064,22.624 z"
   id="path18"
   inkscape:connector-curvature="0" />
</g><path
     style="fill:#2196f3;fill-opacity:1;stroke-width:1.26924086"
     d="M 439.89494,158.89437 348.95306,77.668301 c -8.36099,-7.467746 -21.61704,-7.111397 -29.56474,0.794759 L 77.85936,318.72903 c -7.947721,7.90616 -7.611797,20.40237 0.749204,27.87012 l 90.941876,81.22606 c 4.20194,3.75303 9.60541,5.50131 14.958,5.35742 5.35261,-0.14389 10.65328,-2.21937 14.64858,-6.15329 L 440.68598,186.76337 c 7.90589,-7.90504 7.56996,-20.40126 -0.7911,-27.869 z"
     id="path22"
     inkscape:connector-curvature="0" /><path
     style="fill:#115494;fill-opacity:1"
     d="m 312.574,199.424 c -30.176,-30.208 -82.944,-30.208 -113.12,0 -15.136,15.104 -23.456,35.2 -23.456,56.576 0,21.376 8.32,41.472 23.424,56.576 15.104,15.104 35.2,23.424 56.576,23.424 21.376,0 41.472,-8.32 56.576,-23.424 15.104,-15.104 23.424,-35.2 23.424,-56.576 0,-21.376 -8.32,-41.472 -23.424,-56.576 z"
     id="path24"
     inkscape:connector-curvature="0" /><path
     style="fill:#2196f3;stroke-width:1.01438582"
     d="m 438.21961,74.545769 c -31.64884,-31.648837 -83.1634,-31.681297 -114.77978,0 -15.35374,15.321283 -23.76098,35.706381 -23.76098,57.389891 0,21.68351 8.43969,42.06861 23.76098,57.38989 15.80819,15.80819 36.61527,23.72851 57.42235,23.72851 20.77462,0 41.54924,-7.92032 57.38989,-23.72851 31.61637,-31.64883 31.61637,-83.13094 -0.0325,-114.779781 z"
     id="path26"
     inkscape:connector-curvature="0" /><path
     style="fill:#2196f3;stroke-width:1.01686394"
     d="m 73.827231,322.72041 c -31.726156,31.72616 -31.726156,83.36658 0,115.06019 15.846808,15.84682 36.672179,23.75395 57.530099,23.75395 20.85791,0 41.65074,-7.90713 57.53009,-23.75395 31.72616,-31.72615 31.72616,-83.36657 0,-115.06019 -30.71743,-30.74996 -84.34276,-30.74996 -115.060189,0 z"
     id="path28"
     inkscape:connector-curvature="0" /></g>
</g></g>
<g
   id="g32"
   transform="translate(0,388)">
</g>
<g
   id="g34"
   transform="translate(0,388)">
</g>
<g
   id="g36"
   transform="translate(0,388)">
</g>
<g
   id="g38"
   transform="translate(0,388)">
</g>
<g
   id="g40"
   transform="translate(0,388)">
</g>
<g
   id="g42"
   transform="translate(0,388)">
</g>
<g
   id="g44"
   transform="translate(0,388)">
</g>
<g
   id="g46"
   transform="translate(0,388)">
</g>
<g
   id="g48"
   transform="translate(0,388)">
</g>
<g
   id="g50"
   transform="translate(0,388)">
</g>
<g
   id="g52"
   transform="translate(0,388)">
</g>
<g
   id="g54"
   transform="translate(0,388)">
</g>
<g
   id="g56"
   transform="translate(0,388)">
</g>
<g
   id="g58"
   transform="translate(0,388)">
</g>
<g
   id="g60"
   transform="translate(0,388)">
</g>
<flowRoot
   xml:space="preserve"
   id="flowRoot877"
   style="font-style:italic;font-variant:normal;font-weight:800;font-stretch:normal;font-size:40px;line-height:1.25;letter-spacing:0px;word-spacing:0px;fill:#000000;fill-opacity:1;stroke:none"
   transform="translate(0,388)"><flowRegion
     id="flowRegion879"
     style="font-style:italic;font-variant:normal;font-weight:800;font-stretch:normal;"><rect
       id="rect881"
       width="1336.4067"
       height="375.32202"
       x="600.94916"
       y="99.796608"
       style="font-style:italic;font-variant:normal;font-weight:800;font-stretch:normal;" /></flowRegion><flowPara
     id="flowPara883" /></flowRoot><g
   aria-label="SPINNER"
   style="font-style:normal;font-weight:normal;font-size:40px;line-height:1.25;font-family:sans-serif;letter-spacing:0px;word-spacing:0px;fill:#2196f3;fill-opacity:1;stroke:none"
   id="text887"><path
     d="m 144.12432,637.25199 q 23.46667,0 34.71111,4.4 11.24444,4.4 15.64444,6.84445 4.88889,2.44444 7.33334,3.42222 l -16.13333,33.73333 -6.35556,-3.42222 q -20.04444,-9.77778 -35.2,-9.77778 -12.71111,0 -22.48889,8.8 -8.8,8.31111 -8.8,15.64444 -1.46666,10.26667 3.42222,17.6 5.37778,7.33334 13.68889,13.68889 8.31111,6.35556 18.08889,12.71111 10.26667,6.35556 18.08889,14.66667 19.55556,19.06667 15.15556,47.91111 -3.91112,28.84444 -24.93334,46.44444 -21.02222,17.6 -57.688885,17.6 -29.822221,0 -51.822221,-12.22222 -4.399999,-2.93333 -7.333333,-4.4 L 55.146545,817.1631 q 2.444445,0.97778 6.355556,3.42222 4.4,2.44444 9.777777,4.4 13.688889,5.86667 25.422222,5.86667 21.51111,0 32.26667,-14.66667 3.42222,-4.4 4.4,-12.22222 1.46666,-8.31111 -3.91112,-14.66667 -5.37777,-6.84444 -13.68888,-12.71111 -8.31112,-6.35555 -18.088893,-12.71111 Q 87.9021,757.02977 79.590989,748.71866 60.524323,729.65199 64.435434,700.80755 68.346545,671.47421 89.368767,654.3631 110.39099,637.25199 144.12432,637.25199 Z"
     style="font-style:normal;font-variant:normal;font-weight:normal;font-stretch:normal;font-size:366.66665649px;font-family:Timmana;-inkscape-font-specification:Timmana;fill:#2196f3;fill-opacity:1"
     id="path876" /><path
     d="m 302.52408,674.89644 q -3.42222,0 -6.84444,0 -3.42222,0 -7.33333,0.48888 l -11.73334,80.66667 h 13.2 q 23.46667,0 32.75556,-21.51111 3.42222,-7.82222 5.37777,-19.55556 5.37778,-40.08888 -25.42222,-40.08888 z m -54.75555,-33.73334 58.17777,-1.46666 q 43.02223,0 58.66667,19.06666 16.13333,19.06667 10.26667,56.22222 -5.37778,39.6 -30.31111,59.15556 -21.02223,16.13333 -56.71111,16.13333 -3.91111,0 -7.82223,0 -3.91111,0 -7.82222,-0.48889 l -10.26666,73.33333 h -45.46667 z"
     style="font-style:normal;font-variant:normal;font-weight:normal;font-stretch:normal;font-size:366.66665649px;font-family:Timmana;-inkscape-font-specification:Timmana;fill:#2196f3;fill-opacity:1"
     id="path878" /><path
     d="M 441.85706,863.11865 H 394.92373 L 426.21262,641.1631 h 46.93333 z"
     style="font-style:normal;font-variant:normal;font-weight:normal;font-stretch:normal;font-size:366.66665649px;font-family:Timmana;-inkscape-font-specification:Timmana;fill:#2196f3;fill-opacity:1"
     id="path880" /><path
     d="m 558.70125,641.1631 50.35555,139.33333 h 0.48889 q 0.97778,-2.93333 2.44444,-24.44444 L 628.12347,641.1631 h 41.55555 L 638.39013,863.11865 H 596.83458 L 545.01236,723.29643 q -0.48889,3.42223 -0.97778,10.26667 -0.48889,6.84444 -1.95555,14.66667 L 526.43458,863.11865 H 485.36792 L 516.6568,641.1631 Z"
     style="font-style:normal;font-variant:normal;font-weight:normal;font-stretch:normal;font-size:366.66665649px;font-family:Timmana;-inkscape-font-specification:Timmana;fill:#2196f3;fill-opacity:1"
     id="path882" /><path
     d="m 757.18974,641.1631 50.35556,139.33333 h 0.48888 q 0.97778,-2.93333 2.44445,-24.44444 L 826.61196,641.1631 h 41.55556 L 836.87863,863.11865 H 795.32307 L 743.50085,723.29643 q -0.48889,3.42223 -0.97777,10.26667 -0.48889,6.84444 -1.95556,14.66667 L 724.92308,863.11865 H 683.85641 L 715.1453,641.1631 Z"
     style="font-style:normal;font-variant:normal;font-weight:normal;font-stretch:normal;font-size:366.66665649px;font-family:Timmana;-inkscape-font-specification:Timmana;fill:#2196f3;fill-opacity:1"
     id="path884" /><path
     d="M 882.34487,863.11865 913.63376,641.1631 h 119.77774 l -5.8666,38.13334 h -71.86669 l -7.33334,51.33333 h 54.75553 l -4.88886,35.68889 H 942.9671 l -8.31112,58.66666 h 72.84442 l -4.8889,38.13333 z"
     style="font-style:normal;font-variant:normal;font-weight:normal;font-stretch:normal;font-size:366.66665649px;font-family:Timmana;-inkscape-font-specification:Timmana;fill:#2196f3;fill-opacity:1"
     id="path886" /><path
     d="m 1108.7004,744.31866 20.5333,0.97777 q 27.8667,0 33.2444,-34.71111 5.8667,-35.68888 -25.4222,-35.68888 -7.3333,0 -19.0666,0.97777 z m 12.2222,34.71111 -17.1111,-0.48889 -11.7334,84.57777 h -44.4888 l 31.2888,-221.95555 q 0,0 59.6445,-1.46666 42.5333,0 58.6667,16.13333 17.1111,16.13333 12.2222,55.73333 -3.9111,26.4 -17.1111,41.55556 -13.2,14.66666 -28.8445,19.55555 l 30.8,90.44444 h -49.8666 z"
     style="font-style:normal;font-variant:normal;font-weight:normal;font-stretch:normal;font-size:366.66665649px;font-family:Timmana;-inkscape-font-specification:Timmana;fill:#2196f3;fill-opacity:1"
     id="path888" /></g>
</svg>
